<svg xmlns="http://www.w3.org/2000/svg" width="25" height="25" viewBox="0 0 25 25" fill="none"><g clip-path="url(#clip0_2_21)"><path d="M12.5 25C19.4036 25 25 19.4036 25 12.5C25 5.59644 19.4036 0 12.5 0C5.59644 0 0 5.59644 0 12.5C0 19.4036 5.59644 25 12.5 25Z" fill="#9C589F"></path><path d="M18.1529 16.2945V6.19697C18.1529 5.07346 17.2414 4.16193 16.1178 4.16193H8.88917C7.76566 4.16193 6.85413 5.07346 6.85413 6.19697V16.2945H18.1599H18.1529ZM12.5 5.42677C12.8391 5.42677 13.1147 5.70234 13.1147 6.04152C13.1147 6.38069 12.8391 6.65627 12.5 6.65627C12.1608 6.65627 11.8852 6.38069 11.8852 6.04152C11.8852 5.70234 12.1608 5.42677 12.5 5.42677Z" fill="white"></path><path d="M6.84703 17.5169V18.8029C6.84703 19.9265 7.75856 20.8451 8.88208 20.8451H16.1107C17.2343 20.8451 18.1458 19.9335 18.1458 18.8029V17.5169H6.83997H6.84703ZM12.4999 19.7074C12.1608 19.7074 11.8852 19.4318 11.8852 19.0927C11.8852 18.7535 12.1608 18.4779 12.4999 18.4779C12.8391 18.4779 13.1147 18.7535 13.1147 19.0927C13.1147 19.4318 12.8391 19.7074 12.4999 19.7074Z" fill="white"></path></g><defs><clipPath id="clip0_2_21"><rect width="25" height="25" fill="white"></rect></clipPath></defs></svg>