<svg xmlns="http://www.w3.org/2000/svg" width="27" height="27" viewBox="0 0 27 27" fill="none"><g clip-path="url(#clip0_2_26)"><path d="M13.5 27C20.9558 27 27 20.9558 27 13.5C27 6.04416 20.9558 0 13.5 0C6.04416 0 0 6.04416 0 13.5C0 20.9558 6.04416 27 13.5 27Z" fill="#9C589F"></path><path d="M13.5 4.49493C9.66135 4.49493 6.54773 7.60856 6.54773 11.4472C6.54773 14.7211 11.6074 20.6507 13.0955 22.322C13.3168 22.5662 13.6907 22.5662 13.9121 22.322C15.4002 20.6507 20.4598 14.7211 20.4598 11.4472C20.4598 7.60856 17.3462 4.49493 13.5076 4.49493H13.5ZM13.5 14.5532C11.6074 14.5532 10.0582 13.0116 10.0582 11.1114C10.0582 9.21116 11.5997 7.66961 13.5 7.66961C15.4002 7.66961 16.9417 9.21116 16.9417 11.1114C16.9417 13.0116 15.4002 14.5532 13.5 14.5532Z" fill="white"></path></g><defs><clipPath id="clip0_2_26"><rect width="27" height="27" fill="white"></rect></clipPath></defs></svg>