<svg xmlns="http://www.w3.org/2000/svg" width="30" height="30" viewBox="0 0 30 30" fill="none">
  <g clip-path="url(#clip0_75_2)">
    <path d="M15.0495 1.4015e-05C23.3734 0.0111836 30.016 6.7321 30 15.1285C29.9841 23.3333 23.2219 30.0128 14.9442 30C6.65693 29.9872 -0.00796903 23.2727 7.15161e-06 14.945C0.00798333 6.65551 6.72073 -0.0111556 15.0495 1.4015e-05ZM12.2642 16.8773V26.2726H16.3065V16.8837H19.3151C19.5544 15.5928 19.7825 14.3546 20.0346 12.9919H16.423C16.423 11.9962 16.4166 11.101 16.423 10.2059C16.4309 9.11921 16.75 8.75221 17.8587 8.61498C18.5638 8.52722 19.2752 8.49212 20.0473 8.42829C20.0473 7.49962 20.0729 6.60126 20.0234 5.70769C20.0154 5.55929 19.69 5.31197 19.505 5.30718C18.417 5.27367 17.3227 5.2274 16.2411 5.31675C14.4879 5.46196 13.0331 6.14969 12.4907 7.99427C12.3057 8.62136 12.2594 9.29952 12.2323 9.95853C12.1908 10.9813 12.2211 12.0058 12.2211 13.1068H8.77061V16.8805H12.2626L12.2642 16.8773Z" fill="white"></path><path d="M12.2626 16.8773H8.77063V13.1036H12.2211C12.2211 12.0042 12.1908 10.9782 12.2323 9.95535C12.2594 9.29634 12.3057 8.61819 12.4907 7.99109C13.0347 6.14651 14.488 5.45878 16.2411 5.31357C17.3227 5.22422 18.417 5.2689 19.505 5.304C19.69 5.31038 20.0154 5.55611 20.0234 5.70451C20.0729 6.59808 20.0474 7.49644 20.0474 8.42511C19.2753 8.48894 18.5638 8.52404 17.8587 8.6118C16.75 8.74903 16.431 9.11603 16.423 10.2027C16.4166 11.0978 16.423 11.993 16.423 12.9887H20.0346C19.7825 14.353 19.5528 15.5896 19.3151 16.8805H16.3065V26.2694H12.2642V16.8741L12.2626 16.8773Z" fill="black">
	</path>
  </g>
  <defs>
    <clipPath id="clip0_75_2">
	  <rect width="30" height="30" fill="white"></rect>
    </clipPath>
  </defs>
</svg>