<svg xmlns="http://www.w3.org/2000/svg" width="30" height="30" viewBox="0 0 30 30" fill="none"><path d="M14.9717 29.9985C6.95623 30.0877 -0.0248425 23.4543 6.64544e-05 14.9639C0.0236644 6.72652 6.74385 0 14.9913 0C23.328 0 30.0547 6.74489 29.9997 15.1448C29.9446 23.6537 22.9137 30.1113 14.9717 29.9985ZM15.032 25.1487C16.5816 25.0858 18.2216 25.0779 19.8512 24.9389C22.4916 24.7133 24.4974 22.6504 24.5643 20.0025C24.6416 16.973 24.6442 13.9396 24.5551 10.9101C24.4672 7.93045 22.4195 5.92128 19.4265 5.77702C17.6015 5.68915 15.7714 5.68784 13.9439 5.69964C12.5791 5.70751 11.2039 5.7062 9.85354 5.87276C7.38362 6.17702 5.57706 8.10619 5.41056 10.5862C5.29913 12.2452 5.30306 13.9147 5.30175 15.5789C5.30175 17.1081 5.29913 18.6412 5.41187 20.1651C5.60328 22.7527 7.50292 24.7055 10.0751 24.9389C11.6902 25.0858 13.3185 25.0818 15.0307 25.1487H15.032Z" fill="white"></path><path d="M15.0706 24.8936C13.317 24.8277 11.6494 24.8316 9.99514 24.687C7.36074 24.456 5.41515 22.5351 5.21912 19.9882C5.10364 18.4895 5.10633 16.9792 5.10633 15.474C5.10633 13.8359 5.10364 12.1926 5.21777 10.5596C5.3883 8.11857 7.23856 6.21968 9.76822 5.9202C11.1512 5.75626 12.5597 5.75755 13.9575 5.7498C15.8292 5.73818 17.7037 5.73948 19.5727 5.82596C22.6368 5.96796 24.7354 7.94688 24.8254 10.8785C24.9167 13.8591 24.9127 16.8462 24.8348 19.8281C24.765 22.4344 22.712 24.465 20.0077 24.687C18.3388 24.8239 16.659 24.8316 15.0719 24.8936H15.0706ZM7.01029 15.1009C6.96733 15.1009 7.13919 15.0997 7.01029 15.1009C7.05997 16.6061 6.97001 18.1126 7.03446 19.6177C7.1016 21.1513 7.9126 22.286 9.28216 22.7146C9.80314 22.8772 10.3617 23.0063 10.9055 23.0115C13.5533 23.0412 16.2025 23.0334 18.8503 23.0166C19.3458 23.014 19.848 22.9418 20.3327 22.8398C21.948 22.499 22.9698 21.3307 23.0074 19.5635C23.0678 16.7133 23.0745 13.8591 22.9993 11.0089C22.9456 8.97571 21.568 7.63578 19.523 7.59447C16.5999 7.5338 13.6742 7.52476 10.7511 7.59447C8.4376 7.64998 7.19827 8.79499 7.02775 10.9843C6.92167 12.3488 7.00761 13.7274 7.00761 15.0997L7.01029 15.1009Z" fill="black"></path><path d="M7.05443 15.1326C7.05443 13.7752 6.96782 12.4114 7.07442 11.0617C7.24364 8.89601 8.47352 7.76337 10.7694 7.70846C13.6688 7.63823 16.5736 7.64845 19.4744 7.70846C21.5038 7.7506 22.8696 9.07478 22.9242 11.086C22.9988 13.9054 22.9922 16.7287 22.9322 19.5482C22.8949 21.2963 21.8809 22.4519 20.2779 22.7891C19.7969 22.8899 19.2986 22.9602 18.8069 22.964C16.1792 22.9806 13.5503 22.9883 10.9226 22.9589C10.383 22.9525 9.82865 22.8261 9.31165 22.6652C7.95252 22.2413 7.14637 21.1188 7.08108 19.6018C7.01579 18.1142 7.1064 16.6227 7.0571 15.1338C7.01446 15.1338 7.09974 15.1338 7.0571 15.1338L7.05443 15.1326ZM9.94724 15.282C9.94724 18.0108 12.1525 20.1675 14.9494 20.1752C17.8128 20.1828 20.0887 18.0197 20.0687 15.3062C20.0487 12.5864 17.8288 10.459 15.0146 10.4603C12.1765 10.4615 9.94724 12.5838 9.94724 15.282ZM21.4452 10.2713C21.4398 9.61365 20.9148 9.11309 20.2446 9.12458C19.569 9.13608 19.056 9.64047 19.0587 10.2891C19.0614 10.9429 19.5797 11.4346 20.2606 11.4282C20.9402 11.4218 21.4505 10.9238 21.4452 10.2713Z" fill="white"></path><path d="M10.2128 15.2816C10.2128 12.4451 12.3228 10.2155 15.0062 10.2128C17.6683 10.2114 19.7682 12.4478 19.7871 15.3071C19.806 18.1596 17.6532 20.4336 14.9445 20.4255C12.2975 20.4175 10.2128 18.1502 10.2128 15.2816ZM18.0716 15.3191C18.0918 13.5741 16.7041 12.0545 15.0768 12.037C13.3362 12.0183 11.9081 13.4895 11.903 15.3084C11.898 17.0696 13.2946 18.5771 14.9483 18.5959C16.6612 18.6147 18.0502 17.1568 18.0716 15.3205V15.3191Z" fill="black"></path><path d="M21.0638 10.2072C21.0681 10.9303 20.6586 11.4836 20.1133 11.4893C19.567 11.4964 19.1511 10.9515 19.1489 10.227C19.1468 9.50809 19.5584 8.94911 20.1005 8.93637C20.6383 8.92364 21.0606 9.47837 21.0638 10.2072Z" fill="black"></path><path d="M17.872 15.323C17.8498 17.1114 16.4126 18.5287 14.6402 18.5104C12.9291 18.4934 11.4841 17.0265 11.4893 15.3113C11.4945 13.5412 12.9708 12.1108 14.7732 12.1278C16.457 12.1448 17.8929 13.6235 17.872 15.3217V15.323Z" fill="white"></path></svg>