<svg width="182" height="33" viewBox="0 0 182 33" fill="none" xmlns="http://www.w3.org/2000/svg">
<g id="Logo">
<path id="Vector" d="M6.00071 0.670654H13.0336C14.5179 0.670654 15.7902 1.72948 16.0376 3.21183L17.4866 11.8589C17.6279 12.5295 17.7693 13.3059 17.8753 14.2236C18.0167 15.1059 18.1227 16.0589 18.2287 17.0118C18.3347 17.9648 18.4408 18.953 18.5114 19.9059C18.5821 20.8942 18.6528 21.7765 18.6528 22.6236H18.9002C19.1476 21.7059 19.501 20.7177 19.8897 19.6589C20.2785 18.6001 20.7026 17.5765 21.0913 16.5883C21.4801 15.6001 21.8688 14.6824 22.2223 13.8354C22.5757 12.9883 22.8584 12.353 23.0704 11.8589L27.17 2.50595C27.6648 1.41183 28.7604 0.705945 29.962 0.705945H37.5956L35.4045 32.5412H31.5523C29.7852 32.5412 28.3716 31.0236 28.513 29.2589L29.1844 21.8118C29.2551 20.7883 29.3612 19.6942 29.5025 18.4942C29.6439 17.2942 29.7852 16.0942 29.9266 14.8236C30.068 13.5883 30.2447 12.353 30.4214 11.153C30.5981 9.953 30.7395 8.82359 30.8808 7.83535H30.7395C30.3507 8.92947 29.9266 10.0942 29.4672 11.2589C29.0077 12.4236 28.5483 13.6236 28.0889 14.753C27.6294 15.9177 27.17 17.0471 26.7106 18.1412C26.2511 19.2354 25.7917 20.2236 25.3676 21.1412L20.2078 32.5412H16.9564C15.5075 32.5412 14.2352 31.4824 13.9878 30.0706L12.3621 21.1765C12.1854 20.2236 12.044 19.2001 11.8673 18.1059C11.726 17.0118 11.5846 15.8824 11.4432 14.7177C11.3372 13.553 11.1958 12.3883 11.0898 11.2236C10.9838 10.0589 10.9131 8.89418 10.8778 7.80006H10.7364C10.6304 8.89418 10.4537 10.0589 10.277 11.2942C10.0649 12.5648 9.88823 13.8354 9.67618 15.0706C9.46414 16.3412 9.25209 17.5412 9.04004 18.7059C8.82799 19.8707 8.65129 20.8942 8.47459 21.7765L6.38946 32.5412H3.03206C1.12364 32.5412 -0.325338 30.7765 0.0634134 28.9059L6.00071 0.670654Z" fill="#E00008"/>
<path id="Vector_2" d="M60.3906 0.0705566C62.6878 0.0705566 64.7376 0.458796 66.6106 1.19997C68.4484 1.94115 70.0034 3.03526 71.205 4.44702C72.4066 5.85879 73.2901 7.5882 73.7849 9.63526C74.2796 11.6823 74.3503 14.0117 73.9969 16.5882C73.6435 19.1294 72.9013 21.3882 71.8058 23.4C70.7102 25.4117 69.3319 27.1411 67.7062 28.5882C66.0805 30.0353 64.2074 31.1294 62.1223 31.8706C60.0372 32.6117 57.846 33 55.5489 33C53.2517 33 51.1666 32.6117 49.3289 31.8706C47.4911 31.1294 45.9361 30.0706 44.7345 28.6588C43.4976 27.247 42.6494 25.5529 42.1546 23.5058C41.6598 21.4588 41.5891 19.1647 41.9426 16.5529C42.296 14.0117 43.0381 11.7529 44.1337 9.70586C45.2293 7.6588 46.6076 5.92938 48.2686 4.48232C49.9296 3.03526 51.8027 1.94115 53.8878 1.16468C55.9376 0.458794 58.1288 0.0705566 60.3906 0.0705566ZM50.0357 16.6588C49.7883 18.4588 49.7883 20.0117 50.0003 21.3529C50.2477 22.6941 50.6718 23.8235 51.2726 24.6706C51.8734 25.5529 52.6509 26.1882 53.5344 26.647C54.418 27.0706 55.4429 27.3176 56.5384 27.3176C57.634 27.3176 58.6589 27.1059 59.6838 26.647C60.7087 26.2235 61.6275 25.5529 62.4757 24.6706C63.3239 23.7882 64.0307 22.6941 64.6315 21.3529C65.2323 20.0117 65.6564 18.4588 65.9038 16.6588C66.1512 14.8235 66.1865 13.2 65.9391 11.8235C65.6918 10.447 65.2677 9.35291 64.6669 8.47056C64.0307 7.58821 63.2886 6.95291 62.405 6.49409C61.5215 6.07056 60.4966 5.8235 59.4011 5.8235C58.3055 5.8235 57.2806 6.03527 56.2557 6.49409C55.2308 6.95291 54.3119 7.6235 53.4637 8.54114C52.6156 9.45879 51.9087 10.5882 51.3079 11.9294C50.7071 13.3059 50.2831 14.8588 50.0357 16.6588Z" fill="#E00008"/>
<path id="Vector_3" d="M102.693 0.670654L102.234 4.0236C102.022 5.50595 100.75 6.63536 99.2299 6.63536H93.8934L90.2533 32.5059H86.0477C84.21 32.5059 82.7963 30.8824 83.0437 29.0471L86.1891 6.63536H80.4638C78.6261 6.63536 77.2124 5.01183 77.4598 3.17653L77.8132 0.670654H102.693Z" fill="#E00008"/>
<path id="Vector_4" d="M146.552 0.670654L142.064 32.5059H137.858C136.021 32.5059 134.607 30.8824 134.854 29.0471L138.848 0.670654H146.552Z" fill="#E00008"/>
<path id="Vector_5" d="M168.039 0C170.336 0 172.386 0.388234 174.259 1.12941C176.097 1.87059 177.652 2.96471 178.853 4.37647C180.055 5.78824 180.939 7.51764 181.433 9.5647C181.928 11.6118 181.999 13.9412 181.645 16.5176C181.292 19.0588 180.55 21.3176 179.454 23.3294C178.359 25.3412 176.98 27.0706 175.355 28.5176C173.729 29.9647 171.856 31.0588 169.771 31.8C167.686 32.5412 165.494 32.9294 163.197 32.9294C160.9 32.9294 158.815 32.5412 156.977 31.8C155.14 31.0588 153.585 30 152.383 28.5882C151.146 27.1765 150.298 25.4824 149.803 23.4353C149.308 21.3882 149.238 19.0941 149.591 16.4823C149.944 13.9412 150.687 11.6824 151.782 9.63529C152.878 7.58823 154.256 5.85883 155.917 4.41177C157.578 2.96471 159.451 1.87059 161.536 1.09412C163.551 0.388237 165.742 0 168.039 0ZM157.649 16.5882C157.401 18.3882 157.401 19.9412 157.613 21.2823C157.861 22.6235 158.285 23.7529 158.886 24.6C159.486 25.4823 160.264 26.1176 161.148 26.5765C162.031 27 163.056 27.2471 164.152 27.2471C165.247 27.2471 166.272 27.0353 167.297 26.5765C168.322 26.1529 169.241 25.4823 170.089 24.6C170.937 23.7176 171.644 22.6235 172.245 21.2823C172.845 19.9412 173.27 18.3882 173.517 16.5882C173.764 14.7529 173.8 13.1294 173.552 11.7529C173.305 10.3765 172.881 9.28235 172.28 8.4C171.644 7.51765 170.902 6.88235 170.018 6.42353C169.135 6 168.11 5.75294 167.014 5.75294C165.919 5.75294 164.894 5.9647 163.869 6.42353C162.844 6.88235 161.925 7.55294 161.077 8.47059C160.229 9.38824 159.522 10.5176 158.921 11.8588C158.356 13.2353 157.931 14.7882 157.649 16.5882Z" fill="#E00008"/>
<path id="Vector_6" d="M114.993 6.42359H118.068C119.729 6.42359 120.931 6.81183 121.708 7.5883C122.486 8.36477 122.768 9.42359 122.592 10.7295C122.38 12.3177 121.673 13.4471 120.506 14.153C119.34 14.8589 117.856 15.2118 116.124 15.2118H114.074L119.517 30.4589C119.941 31.6589 121.107 32.4707 122.38 32.4707H129.094L123.263 19.6589C123.899 19.3765 124.606 19.0236 125.384 18.5648C126.161 18.1059 126.903 17.4707 127.61 16.7295C128.317 15.9883 128.953 15.1059 129.483 14.1177C130.013 13.1295 130.367 11.9648 130.543 10.6589C130.755 9.28241 130.685 7.97653 130.367 6.77653C130.049 5.57653 129.518 4.51771 128.706 3.60006C127.893 2.68241 126.833 1.97654 125.525 1.44712C124.182 0.917712 122.627 0.670654 120.789 0.670654H108.102L104.108 29.0471C103.861 30.8824 105.275 32.5059 107.112 32.5059H111.318L112.944 21.0354L114.993 6.42359Z" fill="#E00008"/>
</g>
</svg>
